<?xml version="1.0" standalone="no"?>
<!DOCTYPE svg PUBLIC "-//W3C//DTD SVG 20010904//EN"
 "http://www.w3.org/TR/2001/REC-SVG-20010904/DTD/svg10.dtd">
<svg version="1.0" xmlns="http://www.w3.org/2000/svg"
 width="500.000000pt" height="500.000000pt" viewBox="0 0 500.000000 500.000000"
 preserveAspectRatio="xMidYMid meet">

<g transform="translate(0.000000,500.000000) scale(0.100000,-0.100000)"
fill="#000000" stroke="none">
<path d="M2360 3719 c-76 -10 -283 -75 -355 -111 -371 -187 -631 -511 -727
-907 -32 -134 -37 -381 -9 -532 34 -189 93 -341 192 -489 139 -210 308 -359
525 -465 196 -95 369 -135 583 -135 364 0 662 120 927 372 92 88 121 124 202
244 41 62 109 199 130 264 61 189 66 222 66 445 0 204 -1 214 -32 329 -40 150
-135 350 -221 463 -61 81 -228 245 -292 287 -18 11 -44 29 -58 38 -102 69
-309 156 -435 183 -88 20 -391 28 -496 14z m403 -273 c272 -52 516 -207 673
-427 42 -59 111 -198 140 -281 74 -218 68 -490 -16 -716 -97 -259 -329 -498
-580 -595 -95 -37 -159 -57 -215 -68 -70 -14 -297 -13 -373 1 -146 26 -299 89
-423 172 -76 51 -105 81 -94 98 4 6 62 10 131 10 135 0 159 7 204 55 l25 27
-3 456 c-3 561 -6 603 -39 642 -35 42 -77 50 -245 42 -144 -7 -148 -8 -177
-36 -54 -51 -54 -58 -46 -567 7 -422 6 -469 -8 -469 -38 0 -128 178 -166 328
-50 195 -45 445 14 617 25 76 104 230 145 285 41 54 117 136 182 196 106 98
325 199 503 232 79 15 285 14 368 -2z m-918 -695 c3 -5 2 -12 -3 -15 -5 -3 -9
1 -9 9 0 17 3 19 12 6z m-25 -10 c0 -5 -7 -12 -16 -15 -14 -5 -15 -4 -4 9 14
17 20 19 20 6z"/>
<path d="M2555 2871 c-47 -12 -93 -39 -106 -62 -12 -24 -13 -604 0 -904 11
-267 -4 -258 414 -253 294 3 303 4 350 27 83 41 81 15 70 597 -10 562 -9 551
-75 585 -34 18 -60 19 -330 18 -161 -1 -306 -4 -323 -8z m85 -71 c0 -14 5 -18
18 -14 9 3 3 -4 -15 -16 -25 -17 -36 -19 -52 -11 -27 15 -31 14 -31 -8 0 -14
-5 -18 -20 -14 -11 3 -20 10 -21 17 0 6 -5 2 -10 -9 -8 -18 -8 -18 -6 5 1 14
6 24 10 22 5 -2 17 6 27 18 19 22 40 20 40 -5 0 -19 27 -26 40 -10 7 8 10 22
6 30 -3 8 -1 15 4 15 6 0 10 -9 10 -20z m-70 -89 c0 -5 -9 -7 -20 -4 -11 3
-20 7 -20 9 0 2 9 4 20 4 11 0 20 -4 20 -9z m463 -196 c4 -60 6 -222 5 -360
l-3 -250 -170 0 -170 0 -1 40 c-8 238 -13 673 -7 678 4 4 81 6 172 5 l166 -3
8 -110z"/>
</g>
</svg>
